<?xml version="1.0" encoding="UTF-8"?>
<svg id="Camada_1" xmlns="http://www.w3.org/2000/svg" version="1.1" viewBox="0 0 240 240">
  <rect width="240" height="240" fill="#ffffff"/>
  <defs>
    <style>
      .st0 {
        fill: #b40000;
      }
    </style>
  </defs>
  <path class="st0" d="M240,137v103H0V0h240v28c-3.13-1.6-12.74-1.55-17.15-2.85l-27.7,4.05-7.93,1.09c-4.32.59-8.42,1.78-12.23,3.7l-5.98,3.02-10,4.03c-3.48,1.4-6.83,2.97-9.96,5.03l-18.05,11.91c-3.96,2.62-5.65,1.36-11.65,4.38-1.59.8-3.27,1.05-4.77.1-.68-1.53-.32-2.75-.88-4.58-1.73,1.66-3.3,3.13-5.53,4.28-4.03,3.08-8.35,5.26-13.25,6.7-3.03,2.46-5.66,5.04-7.71,8.37l-7.83,5.14c-2.28,1.5-3.71,3.58-5.23,5.78-4.51,6.55-2.95,10.26-5.55,13.45-1.39,1.7-2.38,3.57-3.9,5.1l-11.43,11.56-2.53,3.48-9.47,9.52c-1.03,1.03-2.01,2.27-2.13,3.77-.21,2.41,8.91,5.96,11.2,6.63,3.32.98,10.15-1.17,13.89,4.1s12.25.45,16.19-2.36c12.38-8.81,19.1-5.45,23.22-8.78,10.41-8.44,11.01-5.63,17.54-9.48,11.65-6.85,11.13-10.69,15.9-14.11,9.07-6.5,5.79-1.21,17.76-10.19,3.35-2.51,7.19-3.79,11.21-4.72,5.83,2.37.93,5.58.92,12.83l-.02,13.09c0,4.38,2.48,7.09.2,12.14-2.97,1.74-6.16,2.59-9.54,3.43l-20.81,5.22c-13.16.54-8.65,3.23-16.6,14.36-1,1.39-1.71,2.84-2.93,4.06l-6.99,7.01c-3.36,3.37-11.46,3.88-20.23,20.75l-4.26,8.2c2.04,3.06,20.15,2.7,21.06-2.33.73-4.04,5.99-2.77,11.11-13.91s13.64-6.89,16.66-15.35c2.03-5.69,22.56-8.96,23.41-7.14.33.7-.1,1.09-.79,1.77l-31.44,31.47-5.79,4.24c-2.18,1.6-4.17,3.09-6.41,4.6l-4.17,2.81c-8.53,5.75-10.42,2.1-15.68,5.32-.73.45-1.18,1.41-.56,2.02l4.06,4.02c2,1.98,4.69,2.74,7.53,2.07,3.72-.88,7.24-1.37,10.98-2.11l8.3-1.64c5.06-1,8.23-6.03,11.29-9.78,1.97-2.41,4.44-4.2,5.87-7.1l23.54-23.42c5.79-3.45,4.16-4.45,10.44-8.61,1.2-.8,1.9-2.1,3.2-2.79,2.21-1.18,4.21-2.23,6.01-4.01,1.49-.94,2.74-1.7,3.68-3.08l-6.12-1.55c.69-1.43,2.02-1.73,3.59-2.26l8.56-1.34,12.9-.16c1.79-.02,13.12-1.16,11.08-5.86-2.1-5.11-1.25-15.11,2.13-18.91,3.27-3.67.87-7.6,2.29-8.21,1.81-.78,3.15,3.4,3.24,5.04.11,2.04-7.48,9.09-1.82,11.07,7.23,2.52,9.2,3.12,16.08,4.9ZM124.65,222.86c-2.45.22-3.86.2-5.79.04-1.02.25-1.01.97,0,1.19,2.28-.14,3.99-.16,6.34.02,1.11-.37.85-1.19-.54-1.24Z"/>
</svg>